<svg xmlns="http://www.w3.org/2000/svg" viewBox="0 0 48.295 35.822"><defs><style>.cls-1{fill:#951d4d;}</style></defs><g id="Layer_2" data-name="Layer 2"><g id="Layer_1-2" data-name="Layer 1"><path d="M10.944.078V2.922H3.427V32.89h7.559v2.845H0V.078Z"/><path d="M37.351,35.657V32.812h7.517V2.845H37.309V0H48.3V35.657Z"/><path class="cls-1" d="M17.414,34.282a1.528,1.528,0,1,1,1.528,1.54A1.539,1.539,0,0,1,17.414,34.282Z"/><path class="cls-1" d="M22.61,34.27a1.528,1.528,0,1,1,1.528,1.541A1.539,1.539,0,0,1,22.61,34.27Z"/><path class="cls-1" d="M27.8,34.282a1.528,1.528,0,1,1,1.528,1.54A1.539,1.539,0,0,1,27.8,34.282Z"/><polygon class="cls-1" points="28.303 19.404 31.938 19.414 31.919 2.906 36.728 2.876 36.728 0.001 28.308 0.078 28.303 19.404"/><polygon class="cls-1" points="32.02 32.846 32.025 35.647 36.754 35.671 36.767 32.841 32.02 32.846"/><path class="cls-1" d="M11.553,32.889v2.847h4.692V32.87S11.553,32.857,11.553,32.889Z"/><path class="cls-1" d="M9.209,15.593V19.42h13.06V15.6S9.209,15.545,9.209,15.593Z"/><rect class="cls-1" x="11.509" y="0.082" width="11.544" height="2.869"/></g></g></svg>